<?xml version="1.0" standalone="no"?>
<!DOCTYPE svg PUBLIC "-//W3C//DTD SVG 20010904//EN"
 "http://www.w3.org/TR/2001/REC-SVG-20010904/DTD/svg10.dtd">
<svg version="1.0" xmlns="http://www.w3.org/2000/svg"
 width="1756.000000pt" height="685.000000pt" viewBox="0 0 1756.000000 685.000000"
 preserveAspectRatio="xMidYMid meet">
<metadata>
Created by potrace 1.13, written by Peter Selinger 2001-2015
</metadata>
<g transform="translate(0.000000,685.000000) scale(0.100000,-0.100000)"
fill="#000000" stroke="none">
<path d="M8975 6220 c-104 -5 -255 -13 -335 -20 -80 -6 -219 -15 -310 -20
-566 -32 -681 -43 -827 -79 -24 -6 -61 -15 -83 -20 -22 -5 -49 -16 -59 -25 -9
-9 -23 -16 -31 -16 -14 0 -176 -105 -185 -121 -4 -5 -27 -20 -53 -33 -26 -13
-58 -36 -72 -51 -14 -15 -38 -34 -55 -42 -33 -17 -131 -83 -295 -198 -137 -97
-538 -368 -843 -572 -133 -89 -262 -176 -287 -193 -25 -17 -67 -44 -95 -61
-45 -26 -87 -53 -195 -126 -22 -14 -61 -25 -119 -32 -47 -6 -113 -15 -146 -20
-48 -8 -689 -76 -1335 -142 -58 -5 -370 -48 -695 -94 -427 -60 -645 -96 -790
-129 -110 -24 -225 -50 -255 -56 -59 -12 -93 -20 -252 -61 -56 -14 -258 -81
-328 -108 -30 -12 -83 -32 -116 -45 -75 -27 -146 -84 -176 -139 -22 -39 -29
-44 -128 -77 -124 -42 -186 -75 -214 -113 -19 -25 -21 -41 -19 -162 0 -73 6
-148 11 -167 10 -31 20 -70 41 -155 5 -21 22 -76 36 -123 15 -47 31 -102 35
-122 7 -35 5 -38 -24 -50 -17 -7 -51 -31 -76 -54 -25 -22 -73 -60 -107 -83
-33 -23 -64 -48 -67 -57 -3 -9 -6 -103 -6 -210 l0 -194 36 -40 c23 -25 51 -44
75 -50 22 -6 54 -24 72 -39 17 -16 59 -43 92 -60 103 -55 154 -85 169 -101 7
-8 35 -67 60 -131 51 -128 52 -137 10 -221 -46 -91 -54 -128 -54 -251 0 -67 5
-127 11 -139 6 -11 41 -34 77 -51 l67 -32 190 -1 c105 -1 270 -4 368 -8 l178
-6 39 -47 c58 -71 66 -79 175 -159 263 -196 547 -284 870 -271 149 6 244 23
365 64 94 31 227 98 318 157 87 58 235 196 303 284 29 37 60 74 69 82 15 14
212 16 1891 14 1031 -2 2863 -3 4071 -4 l2197 -2 53 -71 c154 -211 385 -385
623 -470 147 -52 266 -71 450 -71 123 -1 194 4 257 17 394 79 765 353 933 687
39 78 76 183 105 298 10 38 14 42 41 42 21 0 38 -9 55 -29 15 -18 45 -36 78
-46 48 -15 68 -16 173 -5 65 6 186 18 268 25 83 7 233 23 335 34 102 11 241
26 310 32 124 10 208 19 410 39 58 6 140 14 183 18 74 7 81 10 113 45 26 28
34 46 34 73 0 29 9 47 40 83 164 186 150 165 150 229 l0 58 84 82 c46 45 88
82 94 82 17 0 92 120 92 146 0 25 -34 260 -48 336 -5 26 -14 53 -20 60 -10 12
-188 101 -224 112 -15 4 -18 17 -18 73 0 56 6 78 31 128 l31 60 -7 235 c-3
129 -10 253 -15 275 -6 25 -5 55 2 80 6 22 13 66 15 97 6 79 -26 418 -41 443
-12 18 -8 28 34 90 69 102 110 179 110 204 0 31 -25 76 -56 100 -40 32 -89 27
-188 -19 -47 -22 -95 -40 -105 -40 -11 0 -32 -10 -48 -23 -15 -13 -59 -39 -98
-58 l-70 -34 -460 0 c-282 0 -561 -6 -720 -15 -143 -8 -301 -15 -351 -15 l-91
0 -70 46 c-38 26 -103 78 -145 115 -42 38 -98 85 -124 104 -27 19 -79 64 -116
100 -89 86 -136 125 -238 194 -73 49 -210 145 -359 251 -23 17 -63 47 -88 68
-25 21 -68 49 -96 64 -29 14 -65 36 -82 48 -16 12 -68 41 -115 64 -47 24 -91
48 -99 55 -17 14 -115 68 -252 139 -58 30 -111 63 -119 72 -15 18 -83 55 -101
55 -7 0 -20 6 -28 14 -17 15 -38 24 -231 92 -69 24 -138 44 -153 44 -16 0 -49
6 -75 14 -54 17 -336 34 -682 41 -129 3 -287 7 -350 10 -206 9 -2020 13 -2215
5z m2183 -85 c62 -3 195 -8 295 -10 100 -2 252 -9 337 -15 85 -5 200 -12 255
-15 55 -3 125 -10 155 -16 86 -15 194 -41 205 -48 6 -4 28 -13 50 -20 22 -7
59 -21 82 -32 24 -10 48 -19 54 -19 6 0 22 -9 36 -20 14 -11 32 -20 39 -20 18
0 51 -19 89 -50 17 -14 74 -47 127 -73 53 -27 102 -55 108 -63 7 -8 19 -14 26
-14 13 0 62 -25 112 -58 29 -19 89 -52 143 -79 74 -38 194 -114 309 -198 41
-30 98 -70 125 -90 28 -19 75 -53 105 -75 66 -48 194 -139 225 -160 41 -27 98
-74 159 -131 34 -30 97 -84 141 -119 44 -36 110 -90 147 -121 36 -32 95 -77
130 -101 l63 -43 225 2 c124 2 297 7 385 13 88 5 365 10 616 10 l455 0 95 46
c51 25 96 49 99 54 3 5 19 12 35 16 17 4 61 22 98 41 81 40 122 41 122 3 -1
-14 -38 -82 -85 -154 -57 -88 -81 -132 -74 -141 40 -53 42 -64 59 -252 18
-205 15 -235 -27 -292 -17 -23 -17 -25 2 -56 18 -28 21 -62 31 -267 l11 -234
-30 -51 c-29 -49 -31 -58 -33 -167 -1 -64 0 -118 2 -120 2 -2 61 -31 132 -65
70 -34 127 -65 127 -69 0 -4 9 -67 20 -140 30 -203 35 -185 -72 -290 -51 -49
-110 -104 -130 -122 -36 -31 -38 -35 -38 -94 l0 -61 -95 -108 c-83 -95 -95
-113 -95 -146 0 -62 -19 -77 -102 -84 -40 -4 -116 -11 -168 -17 -204 -21 -311
-32 -470 -46 -91 -8 -199 -19 -240 -23 -41 -4 -151 -16 -245 -25 -93 -9 -213
-22 -267 -28 -53 -6 -131 -8 -173 -5 -70 5 -81 9 -111 38 -26 25 -44 33 -83
37 l-51 5 0 66 c-1 301 -110 575 -314 790 -148 154 -371 291 -559 341 -46 12
-47 14 -42 44 3 21 -2 45 -18 76 l-24 45 25 49 c24 49 25 51 9 94 -11 27 -14
50 -8 60 4 10 11 41 14 71 5 43 2 61 -15 95 -23 44 -26 129 -6 154 8 9 6 28
-8 69 -19 54 -52 93 -81 93 -8 0 -28 11 -45 25 -19 16 -42 25 -65 25 -19 0
-48 8 -64 17 -27 16 -29 16 -48 -1 -11 -10 -17 -24 -15 -31 3 -7 -17 -35 -45
-63 -28 -28 -53 -63 -56 -79 -3 -15 -10 -36 -16 -45 -5 -10 -9 -29 -9 -44 0
-14 -10 -39 -21 -56 -20 -27 -20 -34 -9 -71 6 -23 18 -49 26 -58 13 -15 11
-18 -16 -29 -43 -18 -74 -64 -65 -98 8 -32 61 -82 87 -82 28 0 21 -19 -9 -25
-111 -24 -126 -126 -23 -151 67 -16 60 -30 -19 -38 -136 -12 -371 -84 -459
-140 -21 -13 -59 -36 -86 -51 -55 -31 -286 -221 -286 -236 0 -5 -93 -9 -225
-9 l-225 0 0 109 c0 100 2 109 20 114 11 3 23 13 27 22 9 24 -22 45 -67 45
-24 0 -39 6 -48 20 -9 15 -23 20 -60 20 -56 0 -72 -12 -72 -55 0 -44 16 -55
77 -55 29 0 53 -3 53 -7 0 -5 -16 -21 -35 -38 -34 -29 -35 -32 -35 -102 l0
-73 -805 0 c-769 0 -805 1 -805 18 0 32 -22 42 -95 42 -63 0 -71 2 -80 23 -9
20 -18 22 -93 25 -91 3 -112 -5 -112 -44 0 -20 -5 -24 -28 -24 -34 0 -52 -16
-52 -47 0 -21 -4 -23 -56 -23 -48 0 -59 4 -76 25 l-19 25 -722 0 -722 0 -13
21 c-13 20 -19 21 -80 15 -77 -8 -92 -18 -92 -57 0 -19 -5 -29 -15 -29 -12 0
-15 13 -15 57 0 85 -11 93 -133 93 -93 0 -100 2 -118 24 -16 21 -29 25 -101
29 -46 3 -119 12 -163 21 -44 9 -113 22 -154 29 l-74 11 -49 63 -50 63 -118 0
c-132 0 -143 -4 -194 -79 l-29 -41 -136 0 -136 0 -24 35 c-13 20 -36 38 -50
41 -30 7 -311 86 -387 109 -28 8 -65 15 -83 15 -30 0 -94 37 -171 99 -22 18
-40 21 -160 21 l-135 0 3 212 3 211 -27 29 c-26 27 -32 28 -117 28 -85 0 -91
1 -156 40 l-67 40 -795 0 -794 1 -25 52 c-19 39 -35 57 -65 73 -23 12 -61 32
-86 46 -31 18 -54 24 -77 20 -24 -3 -37 0 -46 13 -17 24 -56 11 -56 -17 0 -12
-20 -40 -45 -65 -44 -42 -47 -43 -109 -43 -58 0 -67 -3 -85 -26 -12 -15 -21
-32 -21 -39 0 -9 -31 -14 -112 -17 -101 -4 -121 -8 -188 -37 l-75 -33 -168 7
-168 7 -77 -53 c-124 -84 -182 -137 -182 -165 0 -17 -6 -24 -20 -24 -14 0 -20
7 -20 23 0 38 -12 67 -26 67 -8 0 -14 5 -14 10 0 6 7 10 15 10 8 0 15 7 15 15
0 12 -18 15 -100 15 -82 0 -100 -3 -100 -15 0 -8 7 -15 15 -15 8 0 15 -4 15
-10 0 -5 -7 -10 -15 -10 -8 0 -15 -4 -15 -10 0 -5 -33 -10 -72 -12 l-73 -3 -3
-33 c-2 -22 2 -34 12 -38 14 -5 16 -32 16 -180 l0 -174 -134 0 c-101 0 -136
-3 -145 -14 -8 -9 -11 -64 -9 -172 l3 -159 142 -3 142 -3 3 -208 c3 -206 3
-210 27 -235 14 -14 39 -31 58 -38 l33 -12 0 -268 0 -268 58 0 58 0 11 -53
c16 -77 66 -201 118 -291 25 -44 45 -81 45 -83 0 -1 -168 0 -372 3 -360 5
-375 6 -418 28 l-45 22 -3 84 c-3 83 2 106 39 185 22 49 59 159 59 179 0 27
-119 298 -137 312 -20 16 -183 114 -189 114 -2 0 -37 23 -77 50 -41 28 -80 50
-89 50 -8 0 -26 13 -41 28 -27 28 -27 28 -27 184 l0 155 62 44 c34 24 77 58
97 74 20 17 49 37 64 45 71 36 87 69 68 134 -65 213 -77 258 -102 359 -5 20
-14 55 -20 76 -7 22 -12 80 -13 129 -1 122 13 136 214 202 72 24 102 39 123
63 15 17 27 36 27 42 0 21 77 82 125 99 28 10 64 24 80 31 17 7 46 18 65 25
19 7 44 16 55 21 34 14 178 61 215 70 19 4 69 17 110 29 41 11 152 37 245 56
94 19 229 48 300 64 234 53 1232 184 1940 255 358 35 682 71 720 80 39 8 111
17 160 21 102 7 132 17 198 65 25 19 71 50 102 69 92 57 217 137 259 167 22
16 54 37 71 48 38 24 47 30 234 154 79 53 154 103 166 111 12 8 43 30 68 48
25 17 48 32 51 32 3 0 29 18 58 40 29 22 58 40 64 40 6 0 19 9 29 20 10 11 23
20 30 20 7 0 20 9 30 20 10 11 23 20 30 20 7 0 20 9 30 20 10 11 23 20 30 20
6 0 24 14 40 30 16 17 34 30 40 30 7 0 20 9 30 20 10 11 23 20 30 20 7 0 20 9
30 20 10 11 23 20 30 20 6 0 24 14 40 30 16 17 34 30 40 30 7 0 20 9 30 20 10
11 24 20 30 20 7 0 18 7 25 15 7 9 32 24 54 35 23 10 55 33 71 50 17 17 48 40
70 50 22 10 51 30 64 44 14 14 30 26 37 26 6 0 17 7 24 15 7 8 21 15 31 15 10
0 26 11 35 25 9 14 24 25 34 25 9 0 29 9 43 20 14 11 33 20 43 20 17 0 32 4
114 29 57 17 280 42 470 51 188 10 375 22 615 39 83 6 221 13 309 16 87 2 161
6 164 9 6 7 1883 -2 2030 -9z m-8023 -2275 c3 -5 25 -10 48 -10 23 0 53 -6 67
-13 14 -8 34 -18 45 -24 11 -5 34 -17 50 -26 26 -13 74 -78 75 -99 0 -5 -65
-8 -145 -8 -129 0 -145 2 -145 17 0 26 -40 63 -69 63 -26 1 -26 1 11 34 28 24
36 38 31 54 -4 16 -1 22 10 22 9 0 19 -4 22 -10z m10250 -20 c3 -5 24 -10 47
-10 39 0 126 -40 171 -79 24 -20 49 -80 40 -95 -4 -6 -10 -40 -14 -76 -6 -55
-4 -70 13 -98 24 -40 26 -108 4 -151 -14 -26 -14 -33 -1 -58 28 -52 14 -113
-35 -150 -13 -11 -13 -14 6 -27 32 -23 57 -82 45 -105 -15 -27 -49 -17 -44 13
4 17 -5 29 -34 49 -22 15 -44 27 -49 27 -15 0 -67 -57 -61 -67 3 -5 -43 -7
-101 -5 -81 3 -111 8 -126 21 -10 9 -37 20 -59 26 -32 8 -44 16 -51 37 -8 23
-6 30 15 47 13 11 43 23 67 27 36 5 42 10 42 30 0 19 -7 26 -30 30 -44 9 -80
47 -80 84 0 23 7 35 33 51 17 11 44 22 60 26 34 7 34 14 -3 35 -34 20 -51 69
-37 111 5 15 12 27 16 27 4 0 13 28 20 63 18 79 25 93 78 143 25 24 43 50 43
62 0 23 14 29 25 12z m-10413 -122 c-5 -7 -12 -29 -16 -48 -18 -94 -15 -89
-48 -78 -16 6 -47 8 -68 4 -34 -5 -44 -2 -72 24 l-33 29 63 1 c56 0 62 2 62
21 0 44 18 59 72 59 39 0 48 -3 40 -12z m116 0 c7 -7 12 -25 12 -40 l0 -28
154 0 155 0 -4 -46 c-2 -25 -6 -48 -9 -51 -2 -3 -29 0 -58 7 -35 7 -99 9 -189
4 -168 -8 -189 -4 -189 36 0 16 4 39 9 52 5 13 12 35 15 51 6 24 11 27 49 27
24 0 48 -5 55 -12z m2003 -108 c65 -38 71 -40 155 -40 129 0 124 10 124 -232
l0 -198 -39 0 c-77 0 -71 55 -71 -604 l0 -591 -372 6 c-205 4 -466 7 -580 8
l-208 1 0 23 c0 40 -38 174 -74 262 -38 95 -118 222 -197 313 -68 79 -205 193
-286 239 -53 29 -63 39 -63 62 0 15 4 31 10 37 14 14 23 169 12 191 -14 27
-22 107 -13 122 7 11 18 11 62 -2 30 -8 71 -18 92 -22 l38 -6 -7 -102 c-4 -56
-7 -106 -8 -112 -3 -37 18 -126 31 -133 8 -5 14 -13 13 -18 0 -5 8 -10 19 -12
16 -3 21 4 26 35 3 21 10 46 16 56 15 27 23 193 10 201 -6 4 -11 24 -11 44 1
35 4 38 62 67 62 31 88 56 88 87 0 10 6 18 14 18 19 0 29 -145 18 -265 -9
-103 2 -194 27 -213 9 -7 15 -16 13 -20 -1 -4 6 -8 17 -10 16 -3 21 4 26 35 3
21 11 46 16 56 15 28 23 193 10 201 -7 5 -11 46 -11 112 l0 104 91 0 91 0 -5
-164 c-3 -91 -7 -169 -10 -173 -10 -16 15 -128 32 -141 9 -7 15 -16 13 -20 -1
-4 6 -8 17 -10 16 -3 21 4 26 35 3 21 10 46 16 56 16 30 23 176 9 202 -9 17
-10 50 -5 119 l7 96 90 0 90 0 -5 -172 c-5 -186 5 -285 32 -306 9 -7 15 -16
13 -20 -1 -4 6 -8 17 -10 16 -3 21 4 26 35 4 21 10 47 15 58 14 32 20 72 13
79 -4 3 -6 28 -4 55 1 27 -3 58 -10 68 -8 14 -10 47 -4 116 l7 97 99 0 99 0 0
60 0 60 -453 0 c-434 0 -453 1 -464 19 -7 11 -29 22 -52 26 -29 5 -48 16 -66
38 -23 30 -29 32 -79 30 -29 -1 -71 -9 -91 -18 -32 -13 -48 -13 -95 -4 -74 14
-80 19 -87 62 -11 73 -81 67 804 67 l797 0 67 -40z m-2351 -5 c32 -33 38 -35
95 -35 39 0 74 -6 96 -17 29 -15 62 -18 209 -18 145 0 194 -4 284 -24 111 -23
133 -23 244 0 l64 13 24 -31 c17 -22 36 -33 64 -38 114 -19 18 -25 -424 -25
-322 0 -476 -3 -476 -10 0 -7 -7 -7 -20 0 -13 7 -75 10 -163 9 l-142 -2 -80
42 c-44 24 -84 46 -89 51 -5 5 3 20 19 34 23 22 37 26 86 26 49 0 60 4 76 24
18 22 39 31 84 35 8 0 30 -15 49 -34z m-428 -15 l119 0 -22 -29 c-19 -26 -25
-28 -53 -20 -17 5 -66 9 -108 9 -65 0 -81 -3 -98 -20 -22 -22 -25 -36 -10 -45
7 -4 5 -14 -5 -28 -20 -28 -22 -235 -2 -259 40 -53 141 -77 155 -37 l8 20 18
-20 c14 -15 31 -21 63 -21 23 0 43 -4 43 -10 0 -6 -104 -10 -270 -12 l-270 -3
0 48 c0 40 3 47 20 47 18 0 20 7 20 85 0 78 -2 85 -20 85 -25 0 -26 25 -2 45
9 8 67 51 127 95 93 69 114 80 139 76 16 -4 82 -6 148 -6z m-34 -274 c-2 -80
-6 -148 -10 -151 -13 -13 -80 6 -104 30 -22 22 -24 32 -24 129 0 127 6 136 86
136 l55 0 -3 -144z m-668 -85 l0 -198 -31 -7 c-74 -14 -69 -27 -69 179 0 158
-2 185 -15 185 -8 0 -15 9 -15 20 0 18 7 20 65 20 l65 0 0 -199z m184 152 c3
-27 3 -117 0 -200 l-7 -153 -79 0 -78 0 0 200 0 200 79 0 78 0 7 -47z m945 17
l149 0 -1 -35 c-1 -35 -17 -51 -17 -17 -1 16 -1 16 -11 0 -9 -16 -27 -18 -154
-18 -79 0 -150 3 -159 6 -11 4 -16 19 -16 50 l0 45 30 -16 c22 -11 64 -15 179
-15z m-13 -100 c87 0 166 4 174 9 27 18 30 0 3 -23 -22 -19 -25 -28 -19 -58 4
-23 18 -44 41 -62 19 -16 35 -33 35 -40 0 -8 -69 -10 -255 -8 l-255 3 0 24 c0
22 -4 24 -57 27 l-58 3 -3 123 -3 122 119 -60 119 -60 159 0z m1158 88 c14
-54 11 -57 -66 -60 l-73 -3 -3 -42 c-3 -35 -7 -43 -23 -43 -13 0 -19 7 -19 23
0 12 -3 32 -6 45 -6 21 -11 22 -115 22 l-109 0 0 -36 c0 -29 -3 -35 -16 -30
-9 3 -19 6 -24 6 -4 0 -10 14 -13 30 l-6 30 -111 0 c-91 0 -110 -3 -110 -15 0
-9 -9 -15 -25 -15 -16 0 -25 6 -25 15 0 12 -18 15 -100 15 l-100 0 0 40 0 40
469 0 469 0 6 -22z m906 -18 l0 -40 -105 0 -105 0 0 -45 c0 -38 -3 -45 -20
-45 -15 0 -20 7 -20 29 0 60 -3 61 -120 61 -117 0 -120 -1 -120 -61 0 -22 -5
-29 -20 -29 -15 0 -20 7 -20 29 0 60 -3 61 -120 61 -117 0 -120 -1 -120 -61 0
-22 -5 -29 -20 -29 -17 0 -20 7 -20 45 0 43 -1 45 -30 45 -16 0 -30 4 -30 9 0
5 -3 23 -6 40 l-6 31 441 0 441 0 0 -40z m-1114 -114 l1 -48 -36 5 c-20 2 -62
12 -93 22 -54 15 -58 19 -58 46 l0 30 93 -3 92 -3 1 -49z m-326 10 c20 -7 37
-21 39 -31 3 -17 2 -18 -14 -2 -21 22 -33 21 -72 -3 -27 -16 -33 -26 -33 -55
0 -28 5 -38 23 -44 23 -9 60 7 83 35 17 21 26 -8 14 -42 -6 -14 -10 -43 -10
-65 0 -21 -2 -39 -5 -39 -2 0 -19 9 -37 20 -41 25 -40 25 -76 -5 l-30 -25 -5
37 c-3 21 -10 60 -15 87 -5 27 -7 68 -4 92 4 37 8 43 31 47 48 7 76 6 111 -7z
m-243 -152 c-3 -86 -8 -158 -10 -160 -10 -10 -87 9 -87 21 0 8 -4 15 -10 17
-5 2 -11 52 -12 111 l-2 108 -28 6 c-31 6 -53 27 -44 42 3 5 49 10 102 10 l96
1 -5 -156z m-711 -39 c-15 -8 -36 -15 -45 -15 -10 0 -30 -13 -46 -30 -37 -38
-63 -39 -67 -2 -3 24 -7 27 -38 27 -31 0 -35 -3 -38 -27 l-3 -28 -130 0 -129
0 0 45 0 45 263 0 c238 0 259 -1 233 -15z m438 -10 c7 -27 40 -45 82 -45 13 0
24 -4 24 -10 0 -6 -75 -10 -205 -10 l-205 0 0 45 0 45 149 0 149 0 6 -25z
m2875 -18 c85 -66 114 -81 144 -79 15 1 49 -4 75 -12 26 -8 74 -22 107 -31 67
-18 171 -48 255 -74 41 -13 60 -25 75 -49 l20 -31 152 -1 152 0 41 54 c23 30
48 57 56 60 9 3 62 6 118 6 l103 0 27 -38 c43 -63 82 -95 118 -97 42 -3 198
-31 221 -40 9 -4 61 -10 115 -14 90 -6 97 -8 100 -28 3 -21 8 -22 120 -25
l117 -3 3 -72 3 -73 44 0 45 0 0 40 c0 29 4 40 15 40 12 0 15 -19 15 -115 0
-96 -3 -115 -15 -115 -11 0 -15 11 -15 40 l0 40 -45 0 -44 0 -3 -62 -3 -63
-107 -3 -108 -3 0 -63 0 -63 -136 -66 c-139 -69 -170 -78 -180 -52 -4 9 -19
15 -35 15 -19 0 -29 -5 -29 -15 0 -13 -31 -15 -215 -15 -182 0 -217 2 -221 15
-5 13 -45 15 -275 15 l-269 0 -70 -45 -70 -45 -155 0 -156 0 -87 -45 -88 -46
-150 3 -149 3 -3 43 c-3 34 1 46 19 61 19 15 23 32 30 117 11 132 10 612 -1
744 -7 88 -12 107 -29 121 -15 12 -21 29 -21 56 0 22 3 43 7 46 3 4 78 7 167
7 l160 0 55 -43z m-4099 -197 l0 -160 -50 0 -50 0 0 154 0 155 48 4 c26 2 48
4 50 5 1 1 2 -70 2 -158z m180 0 l0 -160 -80 0 -80 0 0 160 0 160 80 0 80 0 0
-160z m80 149 c0 -4 7 -15 16 -23 12 -13 40 -16 143 -16 l128 0 7 -117 8 -117
-44 -35 c-23 -19 -64 -57 -90 -84 l-48 -49 0 66 0 66 -85 0 -85 0 0 160 0 160
25 -2 c14 -1 25 -6 25 -9z m-380 -154 l0 -155 -135 0 -135 0 0 148 c0 82 3
152 7 155 3 4 64 7 135 7 l128 0 0 -155z m11932 123 c4 -32 78 -46 125 -24 33
16 73 21 73 10 0 -3 -10 -14 -22 -24 l-22 -17 47 -21 c36 -16 51 -30 62 -56
19 -45 20 -43 -12 -59 -22 -12 -34 -12 -77 -1 -100 27 -258 37 -373 25 -60 -6
-114 -11 -120 -11 -19 0 -16 24 7 53 14 17 19 34 15 50 -4 14 -1 28 7 34 15
13 119 33 131 26 5 -3 11 4 14 16 5 19 13 21 73 21 63 0 69 -2 72 -22z m-256
2 c-46 -9 -77 -41 -74 -79 1 -14 -6 -41 -16 -59 -10 -19 -15 -39 -13 -46 3 -8
-13 -17 -46 -26 -109 -27 -350 -144 -372 -181 -4 -5 -40 -9 -82 -9 -69 0 -78
2 -109 29 l-33 30 44 39 c111 98 272 191 425 247 88 32 230 64 280 63 l35 0
-39 -8z m-10291 -75 c-3 -36 -14 -92 -24 -125 -10 -32 -17 -61 -15 -63 2 -2
-10 -16 -26 -32 -29 -28 -31 -28 -185 -34 -85 -3 -160 -4 -165 -3 -6 2 -10 35
-10 73 0 66 -1 69 -24 69 -23 0 -24 2 -25 90 l0 90 240 0 241 0 -7 -65z
m10882 24 c502 -177 823 -604 823 -1095 0 -72 -1 -74 -25 -74 -27 0 -39 -17
-49 -73 -36 -196 -170 -439 -333 -600 -113 -112 -203 -177 -328 -237 -423
-203 -897 -163 -1278 108 -87 62 -225 201 -276 277 -19 28 -49 66 -67 85 -38
41 -85 151 -116 277 -18 73 -22 115 -22 248 1 139 4 173 27 256 14 53 40 132
59 175 l34 79 62 3 c52 2 62 0 62 -13 0 -9 9 -28 19 -41 20 -25 20 -25 -15
-97 -57 -122 -76 -213 -76 -367 0 -165 19 -250 91 -395 136 -274 376 -459 706
-546 79 -21 112 -24 275 -24 163 0 196 3 275 24 330 86 570 273 706 546 72
145 91 230 91 395 0 165 -19 250 -91 395 -112 225 -299 395 -549 496 -67 27
-79 35 -62 41 15 5 20 16 20 42 0 19 -4 38 -10 41 -5 3 -10 14 -10 24 0 10
-12 24 -27 31 -16 8 -30 16 -32 17 -4 2 19 33 24 33 2 0 43 -14 92 -31z
m-10641 -29 c20 -80 25 -90 48 -90 23 0 46 38 46 76 0 13 4 25 9 28 11 7 146
-38 178 -59 13 -9 23 -22 23 -30 0 -10 10 -15 30 -15 25 0 30 -4 30 -23 0 -29
-57 -63 -129 -77 -44 -8 -64 -6 -137 15 -47 14 -138 30 -202 37 -65 6 -118 12
-120 14 -2 1 2 38 9 83 14 92 10 89 129 87 l75 -1 11 -45z m8679 -35 c0 -5
-13 -12 -30 -15 -17 -3 6 -7 54 -10 55 -3 86 -9 89 -17 2 -8 -6 -13 -22 -13
l-26 0 0 -121 c0 -121 0 -121 -22 -115 -13 3 -35 6 -50 6 -28 0 -28 1 -28 65
0 61 1 65 35 92 21 17 35 37 35 51 0 21 -4 22 -65 22 -65 0 -65 0 -65 28 0 16
3 32 7 36 11 10 88 3 88 -9z m-8159 -143 c164 -122 302 -295 374 -469 35 -84
70 -212 70 -255 l0 -29 -86 3 -86 3 -18 70 c-41 160 -103 274 -215 393 -91 96
-156 147 -259 203 l-79 42 45 12 c59 15 118 60 118 91 0 24 1 24 28 10 16 -8
64 -41 108 -74z m-1316 47 c7 -29 39 -38 56 -15 23 32 44 8 44 -49 0 -30 -4
-57 -10 -60 -5 -3 -48 -9 -95 -12 l-85 -6 0 66 c0 62 1 66 33 86 38 25 50 23
57 -10z m11208 7 c83 -15 96 -22 56 -31 -16 -4 -55 -17 -87 -31 -32 -13 -66
-24 -76 -24 -23 0 -38 -18 -43 -50 l-3 -25 -120 -1 c-71 -1 -100 1 -70 5 l50
6 1 42 c1 45 -19 67 -74 82 -38 10 -38 29 0 34 76 9 298 5 366 -7z m-410 -31
c20 -14 44 -25 53 -25 21 0 34 -17 43 -52 6 -27 5 -28 -39 -28 -31 0 -47 -5
-51 -15 -5 -13 -35 -15 -179 -15 -141 0 -175 -3 -185 -15 -7 -9 -29 -15 -54
-15 l-41 0 25 20 c23 18 131 73 224 116 29 13 122 43 164 53 2 1 20 -10 40
-24z m-9940 -30 c45 -15 80 -30 77 -35 -3 -5 -22 -12 -43 -16 -69 -12 -79 -24
-92 -118 l-12 -84 -31 9 c-18 5 -76 12 -130 16 l-98 6 3 46 3 46 48 0 c55 0
67 12 62 64 -2 28 -9 39 -36 53 -19 10 -39 18 -46 18 -7 0 -13 7 -13 16 0 27
200 13 308 -21z m10557 5 c6 -5 38 -19 72 -33 91 -37 219 -124 301 -205 76
-75 167 -205 208 -298 90 -203 90 -485 0 -688 -41 -93 -132 -223 -208 -298
-73 -72 -206 -166 -275 -194 -21 -9 -61 -27 -90 -40 -112 -52 -212 -69 -413
-69 -246 0 -312 16 -537 127 -278 138 -484 432 -512 731 -15 159 9 303 74 445
28 60 38 72 58 72 13 0 32 9 42 20 14 15 31 20 72 20 l53 0 0 -47 c0 -65 36
-103 97 -103 26 0 43 -5 43 -12 0 -16 40 -58 56 -58 9 0 8 -14 -4 -57 -50
-188 14 -425 156 -572 80 -82 196 -145 302 -162 76 -12 233 -3 270 16 14 7 55
27 92 45 45 21 90 53 133 96 54 53 67 61 72 47 4 -10 11 -21 17 -25 18 -13
141 -9 158 5 9 6 35 48 58 92 42 80 42 80 34 150 -5 39 -9 153 -9 255 l0 185
-43 72 c-49 83 -58 88 -152 76 -57 -7 -65 -11 -70 -32 -5 -24 -7 -23 -43 21
l-37 45 0 103 c0 99 -1 105 -27 132 -27 28 -27 28 -156 28 l-128 0 3 28 c3 23
10 29 51 39 27 7 60 19 73 27 13 9 34 16 48 16 13 0 39 6 57 14 32 13 75 7
104 -14z m-10811 -39 c9 -10 18 -31 19 -47 2 -22 -2 -28 -18 -29 -11 -1 -32
-2 -47 -3 -35 -2 -60 -47 -52 -91 6 -27 4 -31 -15 -31 -41 0 -141 -40 -187
-75 -25 -19 -56 -35 -70 -35 l-24 0 0 124 0 123 46 7 c26 3 76 6 112 6 81 0
139 17 160 47 21 27 53 29 76 4z m-1314 -236 c0 -142 -4 -235 -10 -235 -5 0
-21 5 -35 12 -49 22 -55 50 -55 263 l0 195 50 0 50 0 0 -235z m180 21 l0 -215
-26 -20 c-20 -15 -41 -21 -80 -21 l-54 0 0 235 0 235 80 0 80 0 0 -214z m180
151 c0 -59 -3 -67 -46 -125 -25 -33 -58 -85 -74 -114 l-30 -53 0 178 0 177 75
0 75 0 0 -63z m1416 23 c146 -70 300 -212 386 -357 48 -81 108 -240 108 -287
0 -24 -3 -26 -48 -26 -72 0 -84 -18 -80 -119 3 -80 1 -90 -18 -72 -5 6 -35
-48 -79 -147 -65 -146 -72 -157 -99 -160 -28 -4 -28 -3 -9 17 11 12 37 55 58
97 41 82 41 80 16 244 -7 42 -7 88 -1 130 5 36 10 93 10 128 0 56 -4 70 -46
142 l-47 80 -69 0 c-70 0 -70 0 -114 45 -48 50 -152 105 -197 105 l-28 0 6 73
c8 90 10 97 32 97 10 1 41 9 68 20 68 25 78 24 151 -10z m6544 -15 c0 -25 1
-25 85 -25 l85 0 0 -30 0 -30 810 0 c458 0 810 -4 810 -9 0 -5 -7 -14 -15 -21
-10 -8 -15 -31 -15 -66 l0 -54 -800 0 -800 0 0 -25 c0 -24 -2 -24 -82 -27
l-83 -3 -5 -35 -5 -35 -65 0 -65 0 -3 53 -3 52 -40 0 c-37 0 -39 2 -39 30 l0
30 -74 0 c-91 0 -106 -5 -106 -36 l0 -25 -750 3 c-709 3 -750 2 -750 -14 0
-11 -8 -18 -20 -18 -16 0 -20 7 -20 35 0 27 4 35 18 35 29 0 42 21 42 65 0 44
-13 65 -42 65 -13 0 -18 8 -18 30 0 27 3 30 30 30 23 0 30 -4 30 -20 0 -20 8
-20 738 -22 l737 -3 3 -22 c3 -22 8 -23 96 -23 l92 0 -4 35 c-4 35 -4 35 37
35 40 0 41 1 41 35 l0 35 75 0 c73 0 75 -1 75 -25z m-7510 -51 c0 -27 -7 -41
-25 -56 -17 -13 -25 -29 -25 -49 0 -17 -4 -28 -9 -25 -13 8 -105 -89 -118
-126 -11 -29 -12 -21 -12 74 l-1 107 43 34 c56 46 108 77 130 77 13 0 17 -8
17 -36z m-250 -38 c0 -55 -3 -62 -43 -110 -97 -115 -162 -236 -198 -371 -31
-113 -30 -307 0 -420 49 -182 166 -361 313 -480 105 -84 270 -167 403 -202 89
-23 119 -26 265 -26 147 0 176 3 265 26 105 28 253 94 333 149 193 131 333
331 385 546 l22 92 47 0 c40 0 51 -5 77 -32 37 -40 38 -52 6 -162 -107 -369
-460 -682 -877 -778 -115 -27 -381 -31 -493 -9 -366 72 -664 291 -827 607 -39
75 -98 241 -98 275 0 5 32 9 70 9 l70 0 0 100 0 100 -40 0 -40 0 0 200 0 200
36 73 c33 65 111 187 121 187 2 0 8 -12 13 -26 8 -21 15 -25 42 -22 l33 3 3
66 3 66 54 -1 55 0 0 -60z m10275 37 c9 -21 17 -23 79 -23 l69 0 -69 -72 c-39
-40 -85 -95 -103 -121 -27 -39 -35 -46 -47 -36 -19 15 -20 249 -2 267 19 19
62 10 73 -15z m665 -18 c0 -36 28 -75 54 -76 12 0 -2 -9 -34 -22 -53 -21 -150
-86 -197 -132 -27 -26 -104 -140 -121 -177 -18 -44 -62 -30 -62 19 0 21 -4 23
-52 23 -72 0 -88 17 -88 92 l0 58 -79 0 c-70 0 -80 -2 -94 -22 -8 -13 -18 -20
-22 -16 -11 10 52 96 130 176 l71 72 71 0 c50 0 74 4 83 15 10 12 43 15 176
15 l164 0 0 -25z m260 -19 l0 -43 -80 -7 c-54 -4 -87 -3 -102 5 -13 7 -30 15
-38 19 -8 4 -16 21 -18 39 l-3 31 120 0 121 0 0 -44z m294 25 c14 -15 16 -35
14 -105 l-3 -86 -55 37 c-65 44 -141 72 -192 73 l-38 0 0 50 0 50 128 0 c113
0 131 -2 146 -19z m-1804 -96 l0 -75 -75 0 -75 0 0 53 c0 29 5 58 12 65 15 15
85 16 94 0 5 -7 10 -4 15 10 17 44 29 22 29 -53z m397 0 l-51 -75 -163 0 -163
0 0 75 0 75 214 0 215 0 -52 -75z m-9394 -9 c51 -17 75 -42 59 -58 -7 -7 -12
-28 -12 -47 0 -68 -11 -109 -31 -114 -20 -5 -26 -32 -9 -42 6 -3 10 -21 10
-40 0 -29 -4 -34 -27 -37 -36 -4 -40 -41 -5 -46 31 -5 28 -27 -8 -52 -35 -25
-55 -60 -65 -113 -8 -40 -29 -49 -38 -16 -5 17 -11 20 -30 15 -18 -4 -30 1
-47 19 -19 21 -33 25 -77 25 l-53 0 0 35 c0 31 3 35 26 35 15 0 38 12 55 29
28 29 29 32 29 133 0 84 -4 111 -20 143 -11 22 -20 40 -20 42 0 10 90 59 142
79 75 27 73 27 121 10z m183 3 c25 -7 48 -18 51 -25 2 -7 -23 -57 -56 -110
-34 -53 -61 -103 -61 -111 0 -32 30 -82 70 -116 26 -22 37 -37 28 -37 -22 0
-29 -25 -14 -46 19 -26 50 -11 44 21 -5 26 -1 30 17 17 24 -17 35 -54 29 -95
-9 -65 -23 -87 -56 -87 -25 0 -28 3 -28 33 0 73 -77 147 -153 147 l-30 0 8 63
c9 76 9 78 0 100 -5 12 -3 17 8 17 11 0 18 23 27 100 11 93 11 102 -5 120 -18
20 -17 20 29 20 26 0 68 -5 92 -11z m10311 -21 c-13 -72 -19 -157 -12 -168 5
-8 12 -6 26 6 18 16 19 16 19 -9 0 -31 7 -34 27 -9 13 15 14 13 9 -18 -9 -67
-22 -126 -30 -138 -4 -7 -2 -19 4 -27 7 -8 10 -21 7 -30 -5 -11 -12 -12 -37
-4 -58 21 -148 -18 -165 -71 -4 -13 -15 -20 -31 -20 -29 0 -30 5 -8 170 12 91
13 125 4 135 -8 10 -7 15 5 22 10 6 19 37 27 93 7 47 17 88 23 92 5 4 39 8 74
8 l63 0 -5 -32z m114 18 c53 -16 141 -59 181 -89 26 -19 28 -26 28 -91 0 -69
-1 -72 -35 -99 -31 -25 -35 -33 -35 -74 0 -40 5 -50 38 -80 l37 -34 -24 -20
c-19 -15 -39 -19 -106 -19 l-82 0 -27 40 c-18 28 -24 48 -20 64 3 13 1 26 -4
30 -5 3 -1 44 11 97 l20 93 -24 19 c-14 11 -33 17 -47 14 -23 -4 -24 -3 -18
37 3 22 6 60 5 84 0 39 2 42 28 42 15 0 49 -6 74 -14z m-287 -76 c-5 -58 -11
-77 -30 -93 -22 -19 -23 -22 -8 -38 12 -13 14 -27 9 -46 -3 -15 -12 -77 -18
-138 l-12 -110 -30 0 c-22 0 -33 7 -42 26 -7 15 -27 33 -45 40 -18 7 -56 33
-85 56 -31 25 -63 43 -78 43 -31 0 -31 4 4 66 38 65 121 156 180 197 44 30
152 79 159 72 2 -2 0 -36 -4 -75z m-11018 -85 c-4 -79 -5 -153 -1 -165 5 -16
15 -20 45 -20 39 0 39 0 42 -42 l3 -43 53 -3 c51 -3 52 -3 45 -30 -12 -46 -6
-184 12 -252 46 -179 155 -317 306 -390 48 -23 113 -45 149 -51 75 -12 235 -3
265 15 11 7 41 20 68 30 26 10 71 35 99 57 29 21 55 39 58 39 3 0 4 -15 2 -34
-7 -57 9 -73 80 -80 73 -7 67 -7 136 0 61 7 77 26 69 84 -3 25 0 43 9 51 7 8
40 73 72 144 l58 130 77 3 77 3 -6 -33 c-57 -333 -324 -622 -664 -717 -41 -12
-88 -26 -105 -32 -44 -15 -270 -22 -340 -11 -310 50 -557 201 -709 434 -103
158 -138 277 -139 463 0 169 33 292 115 428 30 50 119 167 127 167 2 0 0 -65
-3 -145z m202 -57 l-3 -193 -47 -3 -48 -3 0 45 c0 39 -3 46 -20 46 -18 0 -20
7 -20 70 0 57 3 70 16 70 8 0 12 4 9 10 -3 5 0 20 6 32 17 32 90 118 101 118
5 0 7 -87 6 -192z m914 84 c32 -30 58 -60 58 -66 -1 -28 -37 -54 -82 -59 -42
-4 -47 -2 -52 19 -4 15 -14 24 -26 24 -11 0 -20 5 -20 11 0 7 -12 10 -30 7
-24 -4 -29 -1 -26 11 3 9 8 34 11 56 4 22 11 52 17 67 l10 27 41 -21 c23 -11
67 -45 99 -76z m4608 60 c0 -34 16 -52 46 -52 13 0 26 -4 29 -10 10 -17 64
-11 76 8 10 16 55 17 746 14 540 -2 739 1 749 9 8 6 14 20 14 30 0 17 8 19 60
19 51 0 60 -3 60 -18 0 -26 20 -42 51 -42 27 0 28 -3 31 -52 l3 -53 85 -3 c92
-3 110 6 110 54 0 22 4 23 78 26 69 3 78 5 87 26 l10 22 782 0 783 0 0 -89 0
-90 -51 -3 c-59 -3 -82 -25 -63 -55 10 -16 29 -18 159 -18 130 0 149 2 159 17
8 13 8 23 -2 38 -7 12 -12 55 -12 110 l0 90 150 0 c83 0 150 -3 150 -6 0 -3
-14 -37 -31 -76 -122 -278 -117 -617 15 -912 l17 -38 -4093 7 c-2251 4 -4094
8 -4095 9 -2 1 13 37 32 81 18 43 41 109 50 147 l17 68 42 -38 42 -39 409 -7
c404 -8 408 -8 434 13 14 12 43 30 64 41 20 11 37 24 37 28 0 4 14 16 30 25
29 17 30 21 30 88 l0 69 32 0 c21 0 41 9 59 26 26 25 28 25 205 27 191 2 192
2 292 62 41 24 50 25 196 25 l154 0 73 45 73 45 249 0 c194 0 251 -3 262 -13
10 -10 69 -15 225 -20 189 -6 215 -5 241 10 23 13 31 15 41 5 23 -23 68 -11
199 53 73 36 139 70 146 76 8 7 13 33 13 65 l0 54 92 0 c112 0 128 10 128 82
0 36 4 48 15 48 10 0 15 -10 15 -28z m3970 -120 c0 -63 4 -102 12 -110 26 -26
-8 -33 -143 -30 -111 3 -134 6 -134 18 0 11 17 16 70 20 41 3 65 8 58 13 -9 6
-13 37 -13 98 l0 89 75 0 75 0 0 -98z m-9255 58 c11 -20 15 -59 15 -135 0 -92
-3 -108 -20 -125 -11 -11 -31 -20 -45 -20 l-25 0 0 132 c0 121 2 134 22 155
28 30 34 29 53 -7z m970 -106 l48 -86 -9 -81 c-11 -104 -11 -188 0 -303 l9
-92 -44 -80 -43 -81 -74 2 c-51 1 -76 5 -79 14 -3 8 10 46 30 86 63 130 71
161 71 292 1 132 -11 184 -68 298 -26 51 -30 67 -22 90 9 25 13 27 71 27 l61
0 49 -86z m10425 6 c45 -75 45 -75 41 -155 -7 -138 -5 -257 3 -336 l9 -75 -46
-80 -45 -79 -73 0 c-69 0 -73 1 -79 24 -3 15 4 45 21 80 57 120 63 148 63 291
0 146 -7 175 -66 298 -27 53 -29 66 -19 88 10 24 15 25 78 22 l68 -3 45 -75z
m-10589 -65 c42 -88 58 -164 58 -265 1 -99 -24 -204 -64 -279 -31 -56 -42 -63
-47 -28 -2 18 -10 23 -44 25 -32 2 -44 8 -52 27 -9 19 -8 24 9 28 23 6 26 45
4 53 -8 4 -22 1 -30 -6 -8 -7 -15 -9 -15 -4 0 5 -3 19 -6 31 -5 18 0 23 35 34
23 7 46 18 51 25 6 7 10 53 8 109 l-3 98 -39 14 c-52 18 -53 18 -22 45 15 13
37 39 49 59 51 83 62 99 70 99 4 0 22 -29 38 -65z m-1646 38 c-35 -90 -47
-175 -48 -345 l-1 -178 -43 0 -43 0 0 260 0 260 43 1 c23 0 51 4 62 9 31 13
38 12 30 -7z m12095 -154 c35 -129 20 -292 -39 -408 -17 -32 -26 -40 -34 -32
-6 6 -28 11 -48 11 -56 0 -88 16 -103 52 -22 51 2 91 66 109 48 13 58 35 58
135 0 67 -3 77 -25 98 -27 25 -32 55 -14 88 8 14 8 23 0 31 -6 6 -11 21 -11
34 0 20 5 23 34 23 19 0 38 5 42 12 10 16 49 -65 74 -153z m-12027 -207 l37
-3 0 -80 0 -79 -64 0 -65 0 -7 56 c-11 95 1 271 27 374 l24 95 5 -180 5 -180
38 -3z m11075 219 c26 -21 58 -44 72 -51 14 -7 38 -28 53 -46 16 -19 38 -34
49 -34 16 0 19 -5 15 -22 -8 -28 9 -48 39 -48 15 0 39 -16 66 -46 69 -75 121
-89 193 -54 49 24 85 81 85 134 l0 36 86 0 c85 0 87 1 121 35 41 41 45 35 41
-70 l-3 -77 -45 -17 c-33 -12 -50 -25 -63 -51 -20 -40 -16 -70 16 -117 20 -30
27 -33 73 -33 70 0 84 -17 54 -65 -28 -45 -126 -125 -195 -159 -310 -152 -669
20 -771 369 -21 73 -23 210 -5 285 8 30 16 58 18 63 11 19 58 4 101 -32z
m-9690 -30 c15 -10 41 -23 57 -28 l30 -10 0 -87 0 -88 -48 -18 -48 -18 -10 26
c-6 15 -15 37 -20 50 -5 12 -16 22 -26 22 -15 0 -15 1 -1 13 20 16 32 129 16
145 -20 20 20 14 50 -7z m-212 -23 c33 -31 56 -87 47 -115 -3 -9 -32 -13 -97
-13 l-92 0 8 68 c11 91 11 92 58 92 32 0 48 -7 76 -32z m-489 -78 l111 0 36
-40 c30 -33 43 -40 73 -40 31 -1 42 -6 58 -32 29 -45 63 -66 124 -78 46 -8 60
-7 98 10 27 12 55 17 73 14 25 -6 31 -2 48 32 l19 38 11 -35 c6 -19 10 -55 9
-80 -1 -35 4 -55 23 -82 14 -20 30 -37 35 -37 10 0 55 -105 55 -125 0 -6 -20
-24 -43 -42 -354 -266 -833 -36 -882 424 -4 34 -4 71 0 83 6 20 8 20 24 6 14
-13 42 -16 128 -16z m1373 -60 l0 -80 -44 0 c-58 0 -70 16 -64 86 5 63 16 74
71 74 l37 0 0 -80z m194 54 c8 -20 8 -103 0 -141 l-6 -30 -24 24 c-21 21 -33
24 -77 22 l-52 -3 -3 72 -3 72 79 0 c64 0 81 -3 86 -16z m1144 0 c12 -8 22
-19 22 -24 0 -21 -34 -40 -71 -40 l-39 0 0 -69 c0 -65 -2 -70 -33 -97 -18 -16
-56 -44 -85 -63 l-53 -34 -377 5 c-417 4 -406 3 -462 72 -24 30 -25 35 -22
149 l4 117 547 0 c478 0 549 -2 569 -16z m8232 -30 c0 -44 -23 -86 -60 -108
-39 -23 -112 -21 -141 4 -19 15 -20 19 -8 20 9 0 28 9 42 20 16 13 28 16 32
10 10 -16 24 -12 50 15 14 13 25 36 25 50 0 21 5 25 30 25 28 0 30 -3 30 -36z
m-9937 -454 l47 0 0 -35 c0 -35 -1 -35 -43 -35 -24 0 -48 -5 -55 -12 -9 -9
-15 -9 -24 0 -7 7 -34 12 -60 12 l-48 0 0 34 c0 34 1 35 48 39 26 2 56 2 67 1
11 -2 41 -4 68 -4z"/>
<path d="M15177 3612 c-10 -10 -17 -24 -17 -30 0 -6 -10 -12 -22 -14 l-23 -3
-2 -240 c-2 -164 -7 -247 -15 -263 -9 -17 -9 -28 -1 -40 9 -16 49 -17 463 -17
414 0 454 1 463 17 8 12 8 23 -1 40 -8 16 -13 99 -15 263 -2 233 -3 240 -22
243 -11 2 -25 12 -30 24 -22 49 -68 49 -90 0 -10 -22 -12 -22 -307 -22 -280 0
-298 1 -298 18 0 41 -54 57 -83 24z m71 -34 l3 -28 314 0 314 0 3 28 c2 21 8
27 28 27 20 0 26 -6 28 -27 3 -22 9 -28 28 -28 l24 0 0 -243 c0 -165 4 -247
11 -254 30 -30 -5 -33 -441 -33 -436 0 -471 3 -441 33 7 7 11 89 11 254 l0
243 25 0 c20 0 25 5 25 23 0 31 9 39 40 35 19 -2 26 -10 28 -30z"/>
<path d="M11230 1633 c-24 -8 -40 -34 -40 -64 0 -18 -6 -28 -20 -32 -28 -7
-29 -77 -1 -84 11 -3 22 -16 25 -29 4 -14 18 -29 32 -34 39 -15 434 -12 464 3
13 7 28 26 33 44 5 17 18 34 28 36 26 7 26 57 1 64 -12 3 -22 19 -28 41 -14
58 -31 62 -269 61 -115 0 -217 -3 -225 -6z m464 -35 c9 -12 16 -35 16 -50 0
-21 5 -28 20 -28 11 0 20 -7 20 -15 0 -8 -9 -15 -20 -15 -14 0 -20 -7 -20 -23
0 -12 -7 -33 -16 -45 -15 -22 -19 -22 -238 -22 -235 0 -246 2 -246 47 0 16 -6
23 -20 23 -14 0 -20 7 -20 24 0 15 7 26 20 29 15 4 20 14 20 39 0 19 5 39 12
46 9 9 75 12 234 12 219 0 223 0 238 -22z"/>
</g>
</svg>
